<svg version="1.1" id="Ebene_1" xmlns="http://www.w3.org/2000/svg" x="0" y="0" viewBox="0 0 403 30.9" xml:space="preserve"><style type="text/css">.st0{fill:#747678}</style><path class="st0" d="M8 30.9c-5.4 0-8-5.7-8-15.1C0 6.6 2.8.8 8.1.8c3.6 0 5.6 2.3 7 6.3l-2.6 1.2c-1.2-3.6-2.4-4.7-4.4-4.7C4.9 3.6 3 8 3 16c0 8.1 2 12.4 5.3 12.4 2.2 0 3.4-1.5 4.6-4.7l2.4 1.2c-1.4 3.5-3.4 6-7.3 6zM25.5 30.9c-4.5 0-7.4-3.9-7.4-11.4s3-11.4 7.5-11.4C30 8.1 33 12 33 19.4c0 7.5-3 11.5-7.5 11.5zm0-20.2c-2.9 0-4.5 2.8-4.5 8.8 0 5.9 1.7 8.8 4.6 8.8 2.9 0 4.6-2.9 4.6-8.8-.1-6-1.8-8.8-4.7-8.8zM47.9 30.4V15.7c0-3.6-1.1-5.1-3.6-5.1-1.8 0-3.1 1.2-4 2.5v17.2h-2.8V8.5h2.8v1.8C41.3 9.1 42.8 8 45 8c3.7 0 5.7 2.5 5.7 7.3v15h-2.8zM54.8 30.4v-2.2L64 11h-8.4V8.5h11.5v2.2L57.9 28h9.2v2.5H54.8zM84.4 20.5H73.3c.2 4.7 1.6 7.8 4.3 7.8 1.8 0 3-.7 4.5-2.5l1.7 1.8c-1.9 2.1-3.8 3.3-6.4 3.3-3.8 0-7-3.6-7-11.4 0-7.3 2.8-11.4 7.1-11.4 4.5 0 6.8 4.3 6.8 11.3.2.4.2.7.1 1.1zm-6.9-9.8c-2.3 0-3.9 2.3-4.2 7.2h8.4c-.2-4.2-1.4-7.2-4.2-7.2zM96.4 30.3c-1 .4-2 .6-3.3.6-2.5 0-3.6-1.5-3.6-4.6V10.9h-2.3V8.5h2.3V1.7L92.3 0v8.5h4.2v2.4h-4.2v15c0 1.6.5 2.3 1.7 2.3 1 0 1.7-.2 2.7-.6l-.3 2.7zM108.2 30.3c-1 .4-2 .6-3.3.6-2.5 0-3.6-1.5-3.6-4.6V10.9H99V8.5h2.3V1.7l2.8-1.7v8.5h4.2v2.4h-4.2v15c0 1.6.5 2.3 1.7 2.3 1 0 1.7-.2 2.7-.6l-.3 2.7zM128.1 30.4h-6.6V1.2h6.6c4.4 0 6.9 2.7 6.9 7.4 0 3.5-1.5 5.3-3.5 6.3 2.3.9 4.4 2.7 4.4 7-.1 5.9-3.2 8.5-7.8 8.5zm-.2-26.5h-3.5v9.6h3.4c3 0 4.3-2.1 4.3-4.9 0-3-1.4-4.7-4.2-4.7zm0 12.4h-3.5v11.4h3.8c3.2 0 4.7-2 4.7-5.7s-1.9-5.7-5-5.7zM149.2 11.5c-.8-.5-1.5-.7-2.6-.7-1.4 0-2.7 1.1-3.5 2.5v17.2h-2.8v-22h2.8v1.9c.9-1.3 2.4-2.3 4.2-2.3 1.3 0 2 .2 2.7.5l-.8 2.9zM159.4 30.9c-4.5 0-7.4-3.9-7.4-11.4s3-11.4 7.5-11.4 7.4 3.9 7.4 11.4c0 7.4-3.1 11.4-7.5 11.4zm0-20.2c-2.9 0-4.5 2.8-4.5 8.8 0 5.9 1.7 8.8 4.6 8.8 2.9 0 4.6-2.9 4.6-8.8-.1-6-1.9-8.8-4.7-8.8zM181.7 30.4V15.7c0-3.6-1.1-5.1-3.6-5.1-1.8 0-3.1 1.2-4 2.5v17.2h-2.8V8.5h2.8v1.8c1-1.2 2.5-2.3 4.7-2.3 3.7 0 5.7 2.5 5.7 7.3v15h-2.8zM188.6 30.4v-2.2l9.2-17.3h-8.4V8.5h11.5v2.2L191.7 28h9.2v2.5h-12.3zM207.3 4.4c-1.1 0-2-1-2-2.1s.9-2.1 2-2.1c1 0 1.9 1 1.9 2.1s-.9 2.1-1.9 2.1zm-1.5 26V8.5h2.8v21.9h-2.8zM224.6 30.4V15.7c0-3.6-1.1-5.1-3.6-5.1-1.8 0-3.1 1.2-4 2.5v17.2h-2.8V8.5h2.8v1.8c1-1.2 2.5-2.3 4.7-2.3 3.7 0 5.7 2.5 5.7 7.3v15h-2.8zM234.4 4.4c-1.1 0-2-1-2-2.1s.9-2.1 2-2.1c1 0 1.9 1 1.9 2.1s-.8 2.1-1.9 2.1zm-1.5 26V8.5h2.8v21.9h-2.8zM256.4 17.8h-3.5v12.6H250V1.2h6.8c4.3 0 7.6 2.5 7.6 8.1-.1 5.8-3.6 8.5-8 8.5zm.3-13.9H253v11.2h3.6c3.2 0 4.9-2 4.9-5.6-.1-3.7-1.8-5.6-4.8-5.6zM277 30.4v-1.8c-1.2 1.3-2.8 2.3-4.9 2.3-3.1 0-5.5-2.2-5.5-7.2 0-4.9 2.8-7.1 6.5-7.1 1.6 0 3 .4 3.9 1v-3.1c0-2.6-1.1-3.8-3.4-3.8-1.6 0-2.9.6-4.5 1.8l-1.3-2.2c1.8-1.4 3.7-2.2 6-2.2 3.7 0 6 1.5 6 6.1v16.2H277zm0-10.4c-1-.6-2-1-4-1-2.5 0-3.6 1.7-3.6 4.5 0 2.9 1.1 4.8 3.2 4.8 1.8 0 3.4-1 4.4-2.3v-6zM294 11.5c-.8-.5-1.5-.7-2.6-.7-1.4 0-2.7 1.1-3.5 2.5v17.2h-2.8v-22h2.8v1.9c.9-1.3 2.4-2.3 4.2-2.3 1.3 0 2 .2 2.7.5l-.8 2.9zM306 30.3c-1 .4-2 .6-3.3.6-2.5 0-3.6-1.5-3.6-4.6V10.9h-2.3V8.5h2.3V1.7l2.8-1.7v8.5h4.2v2.4h-4.2v15c0 1.6.5 2.3 1.7 2.3 1 0 1.7-.2 2.7-.6l-.3 2.7zM321.1 30.4V15.7c0-3.6-1.1-5.1-3.6-5.1-1.8 0-3.1 1.2-4 2.5v17.2h-2.8V8.5h2.8v1.8c1-1.2 2.5-2.3 4.7-2.3 3.7 0 5.7 2.5 5.7 7.3v15h-2.8zM342.2 20.5h-11.1c.2 4.7 1.6 7.8 4.3 7.8 1.8 0 3-.7 4.5-2.5l1.7 1.8c-1.9 2.1-3.8 3.3-6.4 3.3-3.8 0-7-3.6-7-11.4 0-7.3 2.8-11.4 7.1-11.4 4.5 0 6.8 4.3 6.8 11.3.1.4.1.7.1 1.1zm-6.9-9.8c-2.3 0-3.9 2.3-4.2 7.2h8.4c-.2-4.2-1.5-7.2-4.2-7.2zM355.7 11.5c-.8-.5-1.5-.7-2.6-.7-1.4 0-2.7 1.1-3.5 2.5v17.2h-2.8v-22h2.8v1.9c.9-1.3 2.4-2.3 4.2-2.3 1.3 0 2 .2 2.7.5l-.8 2.9zM381.3 30.4l-1.7-7.6H372l-1.8 7.6h-2.9l6.9-29.2h3.1l6.9 29.2h-2.9zm-4-17.6c-.6-2.8-1.3-5.8-1.6-8-.3 2.2-1 5.3-1.6 8l-1.6 7.3h6.4l-1.6-7.3zM395.3 30.9c-5.4 0-8.1-5.7-8.1-15.1 0-9.3 2.7-15.1 8.2-15.1 3.8 0 5.7 2.6 6.9 6.3l-2.6 1.2c-1.2-3.6-2.4-4.7-4.4-4.7-3.3 0-5.2 4.3-5.2 12.4 0 8.1 2 12.4 5.3 12.4 3.1 0 4.7-2.6 4.7-7.6v-2.2h-3.9v-2.8h6.8v4.7c0 6-2.5 10.5-7.7 10.5z"/></svg>